# xmcd
#
# Track frame offsets: 
#        150
#        14769
#        34296
#        51045
#        68047
#        87253
#        100495
#        116676
#        131926
#        155113
#        171219
#
# Disc length: 2743 seconds
#
# Revision: 0
# Processed by: cddbd v1.5.2PL0 Copyright (c) Steve Scherf et al.
# Submitted via: ExactAudioCopyFreeDBPlugin 1.0
#
DISCID=9f0ab50b
DTITLE=Taryn Szpilman - Nouveau Vintage Café
DYEAR=2018
DGENRE=Blues
TTITLE0=Chattanooga Choo Choo
TTITLE1=Black Coffee
TTITLE2=Seventh Son
TTITLE3=I Can´t Hold Out Much Longer 
TTITLE4=Work Song
TTITLE5=Pactocombaco
TTITLE6=Lover Come Back To Me
TTITLE7=I Idolize You
TTITLE8=Little Red Rooster
TTITLE9=Oh Darling
TTITLE10=Kashmir
EXTD=
EXTT0=
EXTT1=
EXTT2=
EXTT3=
EXTT4=
EXTT5=
EXTT6=
EXTT7=
EXTT8=
EXTT9=
EXTT10=
PLAYORDER=
